<svg xmlns="http://www.w3.org/2000/svg" x="0px" y="0px"
     width="16" height="16"
     viewBox="0 0 64 64"
     style="fill:#7950F2;">
    <path d="M49.544,41.735c-2.933,0-7.112-1.593-5.866-7.821c0.978-4.888,3.911-5.866,5.866-5.866c1.807,0,3.477,0.668,4.867,1.51	c0.674,0.408,1.53-0.074,1.5-0.861l-0.424-11.298c-0.042-1.12-1.015-1.975-2.131-1.874l-10.697,0.97	c-0.811,0.074-1.369-0.83-0.91-1.503c1.028-1.505,1.928-3.421,1.928-5.519c0-2.933-1.681-7.493-7.821-5.866	c-4.819,1.277-5.866,3.911-5.866,5.866c0,2.173,0.964,4.149,2.036,5.676c0.477,0.68-0.046,1.603-0.874,1.536l-14.616-1.171	c-1.166-0.093-2.152,0.851-2.11,2.019l0.274,7.622c0.027,0.743-0.746,1.23-1.415,0.907c-1.154-0.558-2.45-0.947-3.827-0.947	c-2.933,0-7.493,1.681-5.866,7.821c1.277,4.819,3.911,5.866,5.866,5.866c1.435,0,2.784-0.422,3.975-1.018	c0.667-0.334,1.447,0.151,1.424,0.896l-0.457,14.984c-0.03,1,0.698,1.861,1.689,1.997l7.061,0.879	c0.796,0.109,1.385-0.739,0.987-1.438c-0.757-1.328-1.333-2.89-1.333-4.569c0-2.933,0.897-5.866,6.844-5.866	c4.888,0,6.844,2.933,6.844,5.866c0,1.848-0.698,3.552-1.567,4.96c-0.413,0.67,0.063,1.528,0.85,1.505l17.799-0.545	c1.032-0.031,1.862-0.858,1.896-1.89l0.449-13.488c0.026-0.785-0.828-1.265-1.5-0.857C53.029,41.065,51.355,41.735,49.544,41.735z"></path>
</svg>